<svg xmlns:xlink="http://www.w3.org/1999/xlink" width="18" height="19.872"><g fill="#fff" transform="translate(-93.378 -92.737) scale(.21368)"><defs><path id="a" d="M437 434h85v93h-85z"/></defs><clipPath id="b"><use width="100%" height="100%" overflow="visible" xlink:href="#a"/></clipPath><path d="M475.801 475.48a3.289 3.289 0 0 0 0-4.64 3.283 3.283 0 0 0-4.641 0l-17.359 17.359c-2.961 2.961-4.563 6.801-4.563 10.961s1.602 8 4.563 10.961c6.078 6.078 15.918 6.078 21.918 0l39.203-39.199c4.078-4.082 6.316-9.524 6.316-15.281 0-5.762-2.238-11.2-6.316-15.282-8.481-8.48-22.16-8.48-30.641 0L445.16 479.48c-5.281 5.282-8.16 12.239-8.16 19.68 0 7.442 2.879 14.481 8.16 19.68 5.281 5.281 12.238 8.16 19.68 8.16 7.441 0 14.48-2.879 19.68-8.16l17.359-17.36a3.282 3.282 0 0 0-4.641-4.64l-17.359 17.359c-4 4-9.359 6.242-15.039 6.242s-11.039-2.242-15.039-6.242-6.242-9.359-6.242-15.039 2.242-11.039 6.242-15.039L488.922 445c2.879-2.879 6.637-4.398 10.637-4.398 4 0 7.839 1.597 10.64 4.398 2.879 2.879 4.403 6.641 4.403 10.641s-1.602 7.839-4.403 10.64L471 505.48c-3.441 3.442-9.121 3.442-12.641 0-1.679-1.679-2.64-3.921-2.64-6.32 0-2.398.961-4.64 2.64-6.32zm0 0" clip-path="url(#b)"/></g></svg>