<svg xmlns="http://www.w3.org/2000/svg" xmlns:xlink="http://www.w3.org/1999/xlink" height="14.777" width="8" id="Слой_1"><g transform="translate(-88.25 -85.045) scale(.1924)" id="g12"><g id="g10"><defs id="defs3"><path id="SVGID_1_" d="M458 442h42.76v77.76H458z"/></defs><clipPath id="SVGID_2_"><use height="100%" width="100%" id="use5" overflow="visible" xlink:href="#SVGID_1_"/></clipPath><path id="path8" d="M498.672 441.917l-9.973-.015c-11.203 0-18.441 7.429-18.441 18.925v8.727H460.23c-.867 0-1.57.699-1.57 1.566v12.645a1.57 1.57 0 0 0 1.57 1.566h10.028v31.903c0 .863.699 1.566 1.566 1.566h13.082c.867 0 1.567-.703 1.567-1.566v-31.903h11.722a1.57 1.57 0 0 0 1.571-1.566l.004-12.645a1.57 1.57 0 0 0-1.571-1.566h-11.726v-7.398c0-3.555.847-5.36 5.48-5.36l6.715-.004a1.57 1.57 0 0 0 1.57-1.566v-11.738c0-.868-.703-1.567-1.566-1.571zm0 0" clip-path="url(#SVGID_2_)"/></g></g></svg>