<svg xmlns="http://www.w3.org/2000/svg" id="svg10" viewBox="0 0 3280.262 905.892" height="39.768" width="144" clip-rule="evenodd" fill-rule="evenodd" image-rendering="optimizeQuality" shape-rendering="geometricPrecision" text-rendering="geometricPrecision"><g transform="translate(-.026 .007) scale(.33407)" id="Слой_x0020_1" fill="#fff"><path id="path7" d="M1492.53 1814.81v262.44h306.18v153.06h371.76v-153.06h306.15v-306.18h153.09v-831h-153.09V633.9h-306.15V480.83h-371.76V633.9h-306.18v306.17h-153.05v831h153.05zm4920.5 184.72v73.83h-284.28v-73.83h-122.97v-122.97h-73.87V218.36h-502.98v1472.27h50.38v295.24l98.41.01v195.71h98.4v129.02h98.4v78.74h97.25v39.48h88.79l-.16 32.72h88.02l.1 19.68h88.97v9.84h266.8v-9.84h88.57v-19.68h89.39l.49-32.72h87.28v-39.48h97.25v-78.74h98.4v-129.02h98.4v-195.71l98.4-.01v-295.24h50.39V218.36h-502.98v1658.2h-73.87v122.97h-122.97zm-87.47-13.65v-73.83h122.97v-122.97h73.87V130.88h677.92V1778.1h-50.39v295.24l-98.4.01v195.71h-98.4v129.02h-98.4v78.74h-97.25v39.48h-88.93l-.49 32.72h-87.74v19.68h-88.57v9.84h-441.74v-9.84h-88.17l-.1-19.68h-88.91l.16-32.72h-88.7v-39.48h-97.25v-78.74h-98.4v-129.02h-98.4v-195.71l-98.41-.01V1778.1h-50.38V130.88h677.92v1658.2h73.87v122.97h122.97v73.83h109.33zM8429.44 800.34c0-45.24 8.37-87.1 25.08-125.6 16.78-38.66 41.64-73 74.53-103.03l.17-.17c32.96-29.61 72.55-51.79 118.89-66.52 44.82-14.25 95.31-21.38 151.53-21.38 65.3 0 122.6 8.64 171.91 26.01 51.43 18.12 93.86 45.66 127.24 82.7 32.3 35.82 56.52 76.19 72.66 121.27 11.45 32.02 18.79 66.28 22 102.84h530.58c-4.64-97.62-25.02-186.67-61.08-267.22-41.3-92.24-103.43-174.13-186.3-245.72-83.48-71.68-181.1-125.58-292.74-161.57-112.58-36.29-239.99-54.48-382.09-54.48-132.73 0-252.31 17.96-358.81 53.97-105.8 35.78-199.05 89.35-279.81 160.79-80.14 70.82-140.25 150.33-180.25 238.5-39.91 88.01-59.92 185.18-59.92 291.54 0 361.56 263.39 603.54 790.15 724.45 84.66 19.23 157.49 39.63 218.66 61.32 62.71 22.24 114.25 46.23 154.78 72.06l.03-.04c43.24 27.39 76.17 60.65 98.56 99.5 22.7 39.39 34.16 83.52 34.16 132.13 0 46.08-9.06 88.3-27.06 126.64-18.13 38.61-44.86 72.31-80.09 101.13l-.34.16c-34.9 28.09-77.81 49.16-128.6 63.07-48.83 13.37-104.5 20.11-166.91 20.11-136.46 0-247.11-35.4-331.15-106.2l-.52-.34c-42.52-36.63-75.32-80.87-98.24-132.9-17.57-39.87-29.27-84.27-35.04-133.29H7852.1c3.21 56.91 12.76 112.01 28.68 165.37 20.08 67.3 50.2 131.99 90.44 194.14 40.66 62.26 88.94 118.12 144.98 167.53 56.2 49.56 120 92.4 191.52 128.53 71.61 36.17 148.67 63.26 231.14 81.34 82.85 18.17 171.24 27.21 265.13 27.21 139.05 0 264.87-17.12 377.26-51.45 111.35-34.01 210.09-84.93 296.03-152.87 85.01-67.21 148.69-144.56 191-232.01 42.21-87.26 63.32-185.3 63.32-294.1 0-152.05-38.03-281.05-113.99-386.82-76.52-106.54-192.26-191.06-347.11-253.34-52.99-20.78-111.41-40.64-175.37-59.29-61.91-18.06-130.63-35.45-206.36-51.96-78.37-16.72-145.87-35.39-202.46-55.9-58.51-21.22-105.63-44.62-141.33-70.06-37.97-26.59-66.6-58.06-85.97-94.12-19.76-36.78-29.6-77.51-29.6-121.92zm105.03-91.09c-11.69 26.94-17.56 57.31-17.56 91.09 0 30.05 6.32 56.97 19 80.58 12.87 23.95 32.61 45.37 59.3 64.09l.16.17c29.32 20.92 69.56 40.71 120.68 59.25 52.48 19.03 116.15 36.56 191 52.49h.17c75.66 16.5 146.37 34.46 212.18 53.66 67.71 19.75 128.59 40.41 182.88 61.72l.34.17c170.65 68.57 299.26 163.16 385.73 283.54 87.12 121.31 130.74 267.29 130.74 437.73 0 121.84-24.07 232.52-72.21 332.02-48.03 99.29-119.92 186.77-215.61 262.42-94.56 74.75-202.87 130.69-324.72 167.91-121.37 37.07-255.61 55.56-402.54 55.56-99.93 0-194.47-9.73-283.58-29.26-89.49-19.63-173.48-49.22-251.99-88.86-78.57-39.69-148.51-86.64-209.97-140.83-61.63-54.34-115.02-116.23-160.35-185.64-45.01-69.54-78.66-141.73-101.03-216.69-22.47-75.34-33.67-153.33-33.67-234.05v-43.74h669.7l2.02 41.69c2.64 54.71 13.1 102.61 31.29 143.88 17.69 40.15 42.84 74.15 75.35 102.15l-.04.05c67.5 56.63 159.28 84.96 274.66 84.96 55.45 0 103.49-5.6 144.01-16.69 38.69-10.59 70.91-26.22 96.53-46.77l-.05-.06c25.36-20.74 44.22-44.21 56.51-70.38 12.31-26.22 18.51-56.14 18.51-89.74 0-33.5-7.46-63.14-22.2-88.74-15.14-26.27-38.36-49.36-69.51-69.09l-.17-.17c-34.49-22.01-80.17-43.07-137.22-63.31-58.65-20.79-128.23-40.29-208.92-58.58h-.17c-572.09-131.31-858.15-401.71-858.15-809.53 0-118.72 22.63-227.86 67.78-327.42 45.07-99.37 112.48-188.67 202.12-267.89 89.76-79.4 192.92-138.77 309.54-178.21 115.94-39.2 244.85-58.75 386.82-58.75 150.69 0 286.97 19.68 408.73 58.92 122.94 39.63 230.58 99.11 322.81 178.33l.16.17c92.67 80.01 162.38 172.08 209.03 276.28 46.61 104.12 69.97 219.58 69.97 346.49v43.74h-704.68v-43.74c0-43.26-6.25-82.27-18.74-117.19-12.29-34.32-30.69-65.01-55.23-92.23-23.44-26-53.9-45.58-91.37-58.78-39.58-13.95-87.22-20.88-142.87-20.88-47.99 0-89.7 5.65-125.22 16.94-33.99 10.81-62.89 26.95-86.78 48.4-23.85 21.8-41.58 46.07-53.18 72.79zM393.64 918.46V524.83h481.11v481.11H481.12v306.16h393.63v481.11H481.12v393.63H.01V918.47h393.63zm3870.79 743.28v262.41h-524.87v-262.41h-87.45v-612.33h87.46V786.99h524.86v262.42h437.37V620.69h-183.7V445.85h-341.14v-96.23h-437.37v96.23h-183.67v166.19h-253.89l-.01 262.42h-87.28v962.21h87.45v262.43h253.73v174.94h183.67v87.47h437.37v-87.47h341.14V2099.2h183.7v-437.46zm-87.47 174.94v-262.41h612.32v612.41h-183.7v174.84h-341.14v87.47h-612.32v-87.47h-183.67v-174.94h-253.73v-262.43h-87.45V786.99h87.62l.01-262.42h253.55V358.38h183.67v-96.23h612.32v96.23h341.14v174.84h183.7v603.66h-612.32V874.46h-349.91v262.42h-87.46v437.38h87.45v262.41h349.92zm-2771.89 284.31v-262.44h-153.05V852.6h153.05V546.43h306.18V393.36h546.71v153.07h306.15V852.6h153.09v1005.95h-153.09v306.18h-306.15v153.06h-546.71v-153.06h-306.18zm852.9-1224.65v962.02l-196.82.02v.17h-349.89v-809.14h.17l-.01-196.81h546.55zm-87.47 459.24v-415.5h-371.95l.01 109.33h.17v721.67h262.41v.17l109.35-.01v-415.66z" fill-rule="nonzero"/></g></svg>