<svg xmlns="http://www.w3.org/2000/svg" xmlns:xlink="http://www.w3.org/1999/xlink" height="9.129" width="16" id="Слой_1"><g transform="translate(-9.483 -12.93) scale(.03647)" id="g12"><g id="g10"><defs id="defs3"><path id="SVGID_1_" d="M260 354h439v252H260z"/></defs><clipPath id="SVGID_2_"><use height="100%" width="100%" id="use5" overflow="visible" xlink:href="#SVGID_1_"/></clipPath><path id="path8" d="M696.359 580.552c-.531-1.145-1.023-2.094-1.484-2.856-7.613-13.707-22.156-30.535-43.625-50.48l-.453-.457-.231-.223-.226-.23h-.231c-9.746-9.289-15.914-15.535-18.5-18.735-4.726-6.089-5.785-12.253-3.203-18.503 1.824-4.719 8.684-14.688 20.559-29.918 6.242-8.071 11.191-14.539 14.844-19.411 26.343-35.027 37.765-57.406 34.261-67.152l-1.359-2.277c-.914-1.371-3.277-2.625-7.078-3.77-3.813-1.14-8.684-1.332-14.621-.57l-65.782.453c-1.066-.375-2.585-.34-4.57.117-1.98.457-2.969.688-2.969.688l-1.144.57-.91.688c-.762.453-1.598 1.253-2.512 2.394-.91 1.141-1.672 2.477-2.281 4-7.16 18.422-15.301 35.555-24.442 51.391-5.632 9.441-10.808 17.625-15.535 24.55-4.719 6.93-8.676 12.032-11.871 15.301-3.199 3.278-6.09 5.899-8.684 7.883-2.589 1.981-4.566 2.816-5.933 2.512-1.371-.305-2.664-.61-3.887-.914-2.133-1.371-3.844-3.235-5.137-5.598-1.296-2.359-2.171-5.328-2.628-8.906-.454-3.582-.723-6.66-.801-9.25-.071-2.59-.035-6.246.117-10.965.16-4.723.23-7.918.23-9.594 0-5.789.114-12.07.34-18.844.231-6.777.414-12.144.571-16.101.156-3.957.226-8.149.226-12.563 0-4.418-.265-7.879-.797-10.394a35.743 35.743 0 0 0-2.394-7.309c-1.067-2.359-2.629-4.187-4.68-5.48-2.059-1.297-4.613-2.324-7.652-3.086-8.071-1.828-18.348-2.813-30.84-2.969-28.32-.305-46.516 1.527-54.586 5.484-3.199 1.672-6.094 3.958-8.68 6.852-2.742 3.348-3.125 5.18-1.144 5.481 9.136 1.367 15.605 4.64 19.414 9.82l1.371 2.742c1.066 1.98 2.133 5.484 3.199 10.508 1.067 5.023 1.754 10.582 2.055 16.668.762 11.117.762 20.637 0 28.551-.762 7.921-1.481 14.086-2.168 18.503-.688 4.415-1.715 7.993-3.086 10.735-1.371 2.738-2.285 4.414-2.742 5.023-.457.606-.836.992-1.141 1.141a17.099 17.099 0 0 1-6.168 1.144c-2.133 0-4.719-1.066-7.766-3.199-3.043-2.133-6.203-5.062-9.476-8.793-3.274-3.734-6.969-8.949-11.082-15.648-4.109-6.699-8.371-14.617-12.789-23.75l-3.653-6.629c-2.285-4.262-5.402-10.469-9.363-18.613-3.961-8.149-7.465-16.028-10.508-23.641-1.214-3.199-3.043-5.633-5.48-7.309l-1.145-.687c-.757-.609-1.976-1.254-3.652-1.941a24.317 24.317 0 0 0-5.254-1.485l-62.582.457c-6.394 0-10.734 1.449-13.019 4.34l-.914 1.371c-.458.762-.688 1.981-.688 3.656 0 1.676.457 3.731 1.371 6.164 9.137 21.473 19.07 42.18 29.805 62.129 10.734 19.946 20.062 36.016 27.98 48.188 7.918 12.183 15.989 23.683 24.211 34.488 8.223 10.813 13.664 17.742 16.328 20.785 2.668 3.051 4.762 5.332 6.285 6.856l5.711 5.48c3.653 3.653 9.02 8.031 16.102 13.133 7.082 5.102 14.922 10.125 23.527 15.078 8.602 4.945 18.614 8.981 30.035 12.102 11.418 3.125 22.536 4.379 33.348 3.773h26.266c5.328-.461 9.363-2.137 12.105-5.027l.91-1.145c.614-.91 1.184-2.32 1.711-4.222.535-1.903.801-4 .801-6.282-.156-6.543.344-12.445 1.481-17.699 1.14-5.25 2.437-9.207 3.886-11.875 1.453-2.664 3.09-4.91 4.91-6.734 1.825-1.828 3.125-2.934 3.891-3.313.758-.383 1.363-.644 1.82-.801 3.653-1.218 7.954-.039 12.911 3.543 4.949 3.579 9.589 7.997 13.933 13.25 4.34 5.254 9.555 11.153 15.645 17.7 6.093 6.547 11.422 11.414 15.988 14.617l4.566 2.742c3.047 1.828 7.008 3.504 11.879 5.027 4.867 1.52 9.129 1.903 12.789 1.141l58.469-.914c5.785 0 10.285-.957 13.477-2.856 3.199-1.902 5.097-4 5.711-6.281.609-2.285.644-4.875.117-7.769-.543-2.891-1.078-4.91-1.61-6.051zm0 0" clip-path="url(#SVGID_2_)"/></g></g></svg>