<svg xmlns="http://www.w3.org/2000/svg" height="11" width="16" id="Слой_1"><g transform="translate(-10.742 -13.242) scale(.03906)" id="g4"><path id="path2" d="M667.191 366.137c-11.109-19.766-23.168-23.399-47.718-24.782-24.524-1.664-86.196-2.355-139.621-2.355-53.532 0-115.227.691-139.727 2.328-24.496 1.41-36.582 5.02-47.793 24.809C280.887 385.875 275 419.871 275 479.723v.207c0 59.593 5.887 93.847 17.332 113.379 11.211 19.765 23.27 23.347 47.77 25.011 24.523 1.434 86.218 2.282 139.75 2.282 53.425 0 115.097-.848 139.648-2.254 24.551-1.664 36.605-5.25 47.719-25.012 11.543-19.531 17.383-53.785 17.383-113.383v-.203c0-59.879-5.84-93.875-17.411-113.613zM428.602 556.602V403l128 76.801zm0 0"/></g></svg>